
<svg xmlns="http://www.w3.org/2000/svg" version="1.1" id="Capa_1" x="0" y="0" width="70.43" height="70.43" viewBox="0 0 70.43 70.43" xml:space="preserve">
<style type="text/css">
  <![CDATA[
  selector {/* styles */}
  ]]>
  </style>
  <path d="M69.83 32.05l-11.42-11.42v-7.46c0-1.14-0.92-2.06-2.06-2.06 -1.14 0-2.06 0.92-2.06 2.06v3.35l-7.54-7.54c-0.81-0.8-2.1-0.8-2.91 0l-9.05 9.05 -3.61-3.61c-0.8-0.8-2.1-0.8-2.91 0L0.6 42.09c-0.8 0.8-0.8 2.1 0 2.91 0.8 0.8 2.1 0.8 2.91 0l26.22-26.22 26.22 26.22c0.4 0.4 0.93 0.6 1.45 0.6 0.52 0 1.05-0.2 1.45-0.6 0.8-0.8 0.8-2.1 0-2.91L45.05 28.27v-9.11c0-1.14-0.92-2.06-2.06-2.06s-2.06 0.92-2.06 2.06v5l-3.23-3.23 7.6-7.59L66.92 34.96c0.4 0.4 0.93 0.6 1.45 0.6 0.53 0 1.05-0.2 1.46-0.6C70.63 34.15 70.63 32.85 69.83 32.05z"/><path d="M52.98 44.45L31.19 22.65c-0.39-0.38-0.91-0.6-1.45-0.6 -0.55 0-1.07 0.22-1.45 0.6L6.48 44.45c-0.29 0.29-0.49 0.66-0.56 1.06 -0.06 0.31-0.09 0.63-0.09 0.94V57.09c0 2.74 2.23 4.97 4.97 4.97h10.64c1.38 0 2.71-0.58 3.65-1.6 0.85-0.92 1.32-2.12 1.32-3.37v-7.81c0-1.9 1.45-3.48 3.33-3.66 1.88 0.18 3.33 1.76 3.33 3.66v7.81c0 1.25 0.47 2.45 1.32 3.37 0.94 1.01 2.27 1.6 3.65 1.6h10.64c2.74 0 4.97-2.23 4.97-4.97V46.45c0-0.31-0.03-0.63-0.09-0.94C53.47 45.11 53.27 44.74 52.98 44.45z"/></svg>